<svg width="44" height="43" viewBox="0 0 44 43" fill="none" xmlns="http://www.w3.org/2000/svg">
<path d="M7.1 34.4C6.82386 34.4 6.6 34.1761 6.6 33.9V19.85C6.6 19.5739 6.82386 19.35 7.1 19.35H10.5C10.7761 19.35 11 19.5739 11 19.85V33.9C11 34.1761 10.7761 34.4 10.5 34.4H7.1ZM20.3 34.4C20.0239 34.4 19.8 34.1761 19.8 33.9V19.85C19.8 19.5739 20.0239 19.35 20.3 19.35H23.7C23.9761 19.35 24.2 19.5739 24.2 19.85V33.9C24.2 34.1761 23.9761 34.4 23.7 34.4H20.3ZM0.5 43C0.223857 43 0 42.7761 0 42.5V39.2C0 38.9239 0.223858 38.7 0.5 38.7H43.5C43.7761 38.7 44 38.9239 44 39.2V42.5C44 42.7761 43.7761 43 43.5 43H0.5ZM33.5 34.4C33.2239 34.4 33 34.1761 33 33.9V19.85C33 19.5739 33.2239 19.35 33.5 19.35H36.9C37.1761 19.35 37.4 19.5739 37.4 19.85V33.9C37.4 34.1761 37.1761 34.4 36.9 34.4H33.5ZM0.5 15.05C0.223857 15.05 0 14.8261 0 14.55V11.0622C0 10.8711 0.108849 10.6968 0.280486 10.6129L21.7805 0.107262C21.919 0.0395781 22.081 0.0395782 22.2195 0.107262L43.7195 10.6129C43.8912 10.6968 44 10.8712 44 11.0622V14.55C44 14.8261 43.7761 15.05 43.5 15.05H0.5ZM11.7519 9.79998C11.2739 10.0314 11.4387 10.75 11.9698 10.75H32.0302C32.5613 10.75 32.7261 10.0314 32.2481 9.79998L22.2179 4.94302C22.0803 4.87638 21.9197 4.87638 21.7821 4.94302L11.7519 9.79998Z" fill="#3C404B"/>
</svg>
